<?xml version="1.0" encoding="UTF-8"?>
<svg width="400" height="300" viewBox="0 0 400 300" fill="none" xmlns="http://www.w3.org/2000/svg">
  <rect width="400" height="300" fill="#1E1E2E"/>
  <path d="M200 100C177.909 100 160 117.909 160 140C160 162.091 177.909 180 200 180C222.091 180 240 162.091 240 140C240 117.909 222.091 100 200 100ZM200 170C183.431 170 170 156.569 170 140C170 123.431 183.431 110 200 110C216.569 110 230 123.431 230 140C230 156.569 216.569 170 200 170Z" fill="#6366F1"/>
  <path d="M200 130C194.477 130 190 134.477 190 140C190 145.523 194.477 150 200 150C205.523 150 210 145.523 210 140C210 134.477 205.523 130 200 130Z" fill="#6366F1"/>
  <text x="200" y="220" text-anchor="middle" fill="#6366F1" font-family="Arial" font-size="24">Project Preview</text>
</svg> 