<?xml version="1.0" encoding="UTF-8"?>
<svg xmlns="http://www.w3.org/2000/svg" viewBox="0 0 598.88 1333.33">
  <path fill="#47A248" d="M295.27,3.65l35.58,66.83A104.29,104.29,0,0,1,343.19,96.6c11.29,27.55,5.39,54.71-3.23,80.54-8.25,24.86-20.87,48.25-32.65,71.94-2.45,4.94-4.47,10.06-6.78,15.66l1.25.31c2.68-1,5.4-1.93,8-3,36.28-14.88,71.76-31.91,109-44.19,27.85-9.17,56.36-16.75,85.46-21,7.94-1.16,16.19-.55,24.26-1.19,7.16-.57,14.39.3,21.47-.78,8.91-1.37,17.8-3.5,26.31-6.53,10.84-3.84,15.42-12.86,17.51-23.54l-1.89-.87c-4.85,1.92-9.73,3.77-14.55,5.77-26.33,10.94-54,14.56-82.19,15.54-30.63,1.06-61-1.69-91.31-5.69-23.15-3.05-46.09-7.53-69.11-11.48-5.77-1-7.72-3.8-7.8-9.3-.23-15.62-.72-31.24-1.08-46.86-.29-12.46-3.56-24.45-6.85-36.33-3.9-14.11-9.33-27.75-14.33-41.53-3.15-8.64-6.83-17.1-10.55-25.5-4.2-9.47-9.05-18.65-13.14-28.14C279.74,8.87,281.45,6.85,295.27,3.65Z"/>
  <path fill="#47A248" d="M296.49,1333.33c2.56-2.86,3.53-5.31,4.89-7.48,19.83-31.61,35.36-65.46,46.93-101.07,13.89-42.72,21.58-86.69,25.55-131.33,3.48-39.06,4.45-78.29,6.33-117.46.5-10.47.07-21,.07-31.48v-10.46c-2.27-.13-2.82,1.31-3.45,2.31-8.49,13.47-17.14,26.83-25.35,40.45-17,28.23-30.74,58-42.16,88.91-8.37,22.58-15.66,45.55-21.47,68.83-10.83,43.47-16.65,87.66-18.28,132.33-1.18,32.34-.57,64.63,2.32,96.85.63,7,1.39,14,2.43,20.93C274.71,1321.42,279.06,1327.43,296.49,1333.33Z"/>
</svg> 